<svg width="18" height="13" viewBox="0 0 18 13" fill="none" xmlns="http://www.w3.org/2000/svg">
<path d="M16.6727 2.81363L17.0686 2.45055L16.6781 2.08167L15.9044 1.35077L15.5618 1.02718L15.2185 1.34996L9.27562 6.93763L7.24764 8.79753L7.08042 8.64418L7.08037 8.64424L2.87507 4.78726L2.53719 4.47737L2.19924 4.78718L1.41396 5.50703L1.01208 5.87543L1.41379 6.24402C2.57662 7.31097 5.82398 10.2893 6.90977 11.2847L7.24759 11.5945L7.58547 11.2848C7.81337 11.076 8.1988 10.7117 8.75436 10.1867C9.18918 9.77571 9.72824 9.26627 10.3776 8.65574C11.861 7.26095 13.9295 5.32944 16.6727 2.81363Z" fill="#F26725" stroke="#F26725"/>
</svg>
