<svg width="22" height="22" viewBox="0 0 22 22" fill="none" xmlns="http://www.w3.org/2000/svg">
<path d="M11.5189 11.0322L17.4741 5.07706C17.6083 4.94282 17.6083 4.72519 17.4741 4.59095C17.3398 4.45672 17.1222 4.45672 16.9879 4.59095L11.0327 10.5461L5.07758 4.59091C4.94334 4.45668 4.72571 4.45668 4.59147 4.59091C4.4572 4.72514 4.4572 4.94278 4.59147 5.07702L10.5466 11.0322L4.59143 16.9874C4.45715 17.1217 4.45715 17.3393 4.59143 17.4735C4.65855 17.5407 4.7465 17.5742 4.8345 17.5742C4.9225 17.5742 5.01046 17.5407 5.07758 17.4735L11.0327 11.5184L16.9879 17.4735C17.0551 17.5407 17.143 17.5742 17.231 17.5742C17.319 17.5742 17.4069 17.5407 17.4741 17.4735C17.6083 17.3393 17.6083 17.1217 17.4741 16.9874L11.5189 11.0322Z" fill="black" stroke="white"/>
</svg>
