<svg width="19" height="19" viewBox="0 0 19 19" fill="none" xmlns="http://www.w3.org/2000/svg">
<path fill-rule="evenodd" clip-rule="evenodd" d="M14.9245 0H3.57569C1.60481 0 0.000488281 1.60324 0.000488281 3.5752V14.924C0.000488281 16.896 1.60481 18.4992 3.57569 18.4992H14.9245C16.8954 18.4992 18.4997 16.896 18.4997 14.924V3.5752C18.4997 1.60324 16.8954 0 14.9245 0ZM15.9505 2.13309L16.3595 2.13092V5.2667L13.2335 5.27649L13.2226 2.14071L15.9505 2.13309V2.13309ZM6.61063 7.35072C7.20233 6.53061 8.16384 5.9933 9.25043 5.9933C10.337 5.9933 11.2985 6.53061 11.8902 7.35072C12.2764 7.88586 12.5069 8.54064 12.5069 9.24981C12.5069 11.0445 11.0462 12.5052 9.25043 12.5052C7.45576 12.5052 5.99501 11.0445 5.99501 9.24981C5.99501 8.54064 6.22559 7.88586 6.61063 7.35072V7.35072ZM16.6976 14.9239C16.6976 15.9017 15.9025 16.6968 14.9246 16.6968H3.5758C2.59797 16.6968 1.80288 15.9017 1.80288 14.9239V7.35039H4.56558C4.3263 7.93774 4.19251 8.57838 4.19251 9.24948C4.19251 12.0383 6.46141 14.3083 9.25022 14.3083C12.0401 14.3083 14.309 12.0383 14.309 9.24948C14.309 8.57838 14.1731 7.93774 13.9359 7.35039H16.6976V14.9239V14.9239Z" fill="white"/>
</svg>
