<svg width="25" height="13" viewBox="0 0 25 13" fill="none" xmlns="http://www.w3.org/2000/svg">
<path fill-rule="evenodd" clip-rule="evenodd" d="M13.6504 12.8953C13.6504 12.8953 14.0677 12.8498 14.2815 12.6245C14.4772 12.418 14.4704 12.0283 14.4704 12.0283C14.4704 12.0283 14.4444 10.2087 15.3051 9.94003C16.1533 9.67581 17.2425 11.6997 18.3983 12.4779C19.2715 13.0663 19.9342 12.9375 19.9342 12.9375L23.023 12.8953C23.023 12.8953 24.6381 12.7976 23.8724 11.5509C23.809 11.4488 23.4256 10.6283 21.5764 8.94309C19.639 7.17901 19.8992 7.46432 22.2313 4.41243C23.6518 2.55398 24.2196 1.41937 24.042 0.934222C23.8735 0.470165 22.8285 0.593396 22.8285 0.593396L19.3518 0.614489C19.3518 0.614489 19.0939 0.580073 18.9028 0.692202C18.7162 0.80211 18.5951 1.05856 18.5951 1.05856C18.5951 1.05856 18.0455 2.49625 17.3114 3.71967C15.7631 6.29974 15.1445 6.43629 14.8911 6.27643C14.3019 5.90229 14.4489 4.77546 14.4489 3.97502C14.4489 1.47377 14.8357 0.431309 13.6968 0.161534C13.319 0.0716091 13.0408 0.0127694 12.0738 0.00277772C10.8331 -0.00943431 9.78353 0.00721845 9.18862 0.292536C8.79277 0.482377 8.4874 0.906467 8.67402 0.930892C8.90361 0.960866 9.42387 1.06855 9.69983 1.43714C10.0561 1.9134 10.0437 2.9814 10.0437 2.9814C10.0437 2.9814 10.2484 5.92561 9.56524 6.29086C9.09701 6.54176 8.4546 6.02997 7.07365 3.68859C6.36678 2.48959 5.83295 1.16403 5.83295 1.16403C5.83295 1.16403 5.73003 0.916459 5.54568 0.783237C5.32287 0.62226 5.01184 0.572302 5.01184 0.572302L1.7082 0.593396C1.7082 0.593396 1.21169 0.606718 1.0296 0.818763C0.867868 1.00638 1.01716 1.39606 1.01716 1.39606C1.01716 1.39606 3.60375 7.33665 6.53304 10.3308C9.21916 13.0752 12.2683 12.8953 12.2683 12.8953H13.6504Z" fill="white"/>
</svg>
