<svg width="22" height="25" viewBox="0 0 22 25" fill="none" xmlns="http://www.w3.org/2000/svg">
<path fill-rule="evenodd" clip-rule="evenodd" d="M6.52011 6.32288C6.49163 6.71109 6.48689 9.45399 6.51537 9.50083C6.53673 9.53576 7.81842 9.55164 7.94026 9.51829C7.99406 9.504 7.99802 9.38254 7.99802 7.57167V5.64092L8.09533 5.3313C8.14913 5.16141 8.28363 4.71524 8.39518 4.33973C8.47964 4.05483 8.5777 3.72761 8.64302 3.50966C8.66398 3.43974 8.68156 3.38106 8.69425 3.33863C9.17765 1.75799 9.63969 0.201961 9.65156 0.113839L9.66659 0.00507605L8.99014 0.00110659C8.37857 -0.00206898 8.19185 0.00110659 8.17524 0.0169844C8.16733 0.0241295 7.95609 0.828343 7.58028 2.28593C7.40069 2.98059 7.24957 3.53552 7.24483 3.51964C7.24059 3.50627 7.114 3.03857 6.9392 2.39271C6.8856 2.1947 6.82748 1.97994 6.76696 1.7564C6.50983 0.802938 6.29463 0.0185722 6.2883 0.0122211C6.27881 0.00269437 5.45995 -0.00127509 4.79616 0.00428216C4.78089 0.00440774 4.76671 -0.000194576 4.75764 0.00469123C4.70939 0.0306922 4.80594 0.325404 5.65379 3.0314C5.79303 3.47598 6.0019 4.10633 6.11741 4.43103C6.47344 5.43292 6.5573 5.8251 6.52011 6.32288ZM4.94261 13.9659L4.926 18.0172L4.90939 22.0684L4.25192 22.0772C3.74478 22.0843 3.5913 22.0764 3.57943 22.0438C3.57073 22.0208 3.55965 20.1932 3.5557 17.9838L3.54699 13.9659L2.80804 13.958L2.06909 13.9485V13.3158V12.6822L4.25272 12.691L6.43792 12.6997L6.44742 13.3245L6.45612 13.9485L5.69976 13.958L4.94261 13.9659ZM17.5831 16.5794C17.542 16.7152 17.4993 17.6512 17.5301 17.7322C17.5467 17.7766 17.6401 17.7838 18.201 17.7838H18.8537L18.8427 17.1923C18.8316 16.6493 18.8245 16.5866 18.7525 16.4397C18.6385 16.2079 18.4692 16.1047 18.2026 16.1047C17.8822 16.1047 17.6788 16.2603 17.5831 16.5794ZM19.997 20.8601C19.83 21.4786 19.3878 21.9168 18.7485 22.097C17.8861 22.3383 16.9375 21.9414 16.5586 21.1816C16.3465 20.7545 16.3394 20.6696 16.3394 18.584C16.3394 16.8835 16.3457 16.6755 16.3995 16.4437C16.5522 15.7863 16.9328 15.3616 17.5768 15.1258C18.4305 14.8138 19.4582 15.2084 19.8292 15.9904C20.0239 16.4032 20.0476 16.5794 20.0682 17.7417L20.0848 18.7833L18.8102 18.7928L17.5356 18.8008L17.5261 19.501C17.5127 20.4886 17.5784 20.7926 17.8442 20.9728C18.0673 21.1237 18.4107 21.1118 18.5974 20.9474C18.773 20.7926 18.8229 20.6267 18.8403 20.1432L18.8553 19.7177H19.4716H20.0872L20.0682 20.1924C20.0571 20.4536 20.0247 20.7545 19.997 20.8601ZM13.8717 20.6672C13.8314 20.7823 13.78 20.8561 13.7016 20.9093C13.5023 21.0427 13.2135 21.0006 12.95 20.799L12.8337 20.7101V18.584V16.458L12.9508 16.3691C13.3068 16.096 13.6953 16.1261 13.8496 16.4381C13.9097 16.5604 13.9137 16.6699 13.9208 18.534C13.9279 20.3226 13.9232 20.5156 13.8717 20.6672ZM15.0063 21.5865C14.9011 21.8223 14.6669 22.0533 14.473 22.1097C13.9714 22.259 13.5687 22.1383 13.1035 21.6993C12.9587 21.5627 12.8242 21.4516 12.8045 21.4516C12.7799 21.4516 12.7673 21.5579 12.7673 21.7683V22.0851H12.1691H11.571V17.3837V12.683H12.1691H12.7673V14.2168C12.7673 15.0599 12.7791 15.7506 12.7918 15.7506C12.806 15.7506 12.9318 15.6387 13.0727 15.5029C13.3963 15.1893 13.666 15.0528 14.0086 15.0258C14.621 14.9797 14.9849 15.2949 15.1519 16.0166C15.2033 16.242 15.2096 16.4993 15.2096 18.584C15.2096 21.1237 15.2088 21.1348 15.0063 21.5865ZM8.86285 21.5532C8.6263 21.7945 8.34543 21.9898 8.1065 22.0787C7.61123 22.2653 7.14127 22.1565 6.94031 21.8104C6.75676 21.4936 6.7536 21.4222 6.7536 18.1347V15.1171H7.35014H7.94826L7.95697 17.9592C7.96646 20.7514 7.96804 20.8037 8.0345 20.9165C8.12232 21.0681 8.2584 21.1094 8.47202 21.0499C8.5986 21.0149 8.68405 20.953 8.88817 20.749L9.14609 20.4925V17.8044V15.1171H9.74422H10.3423V18.6007V22.0851H9.74422H9.14609V21.7183C9.14609 21.442 9.13502 21.3515 9.10337 21.3515C9.07963 21.3515 8.97124 21.442 8.86285 21.5532ZM6.57084 24.9383C6.91816 24.951 7.8375 24.9725 8.61443 24.986C10.2332 25.0146 13.2095 24.9979 14.9105 24.9502C16.0554 24.9177 18.1425 24.8335 18.5317 24.8034C18.6417 24.7946 18.8957 24.7788 19.0966 24.7669C19.7731 24.7288 20.2027 24.5866 20.6054 24.2683C21.1283 23.8563 21.5318 23.0957 21.7027 22.2034C21.8649 21.3595 21.9733 19.8558 21.9947 18.149C22.0137 16.7223 21.9883 15.9523 21.8863 14.717C21.7557 13.1562 21.6537 12.6497 21.3325 11.9995C20.9076 11.1381 20.2937 10.684 19.4194 10.584C18.7438 10.507 16.2009 10.3974 13.8472 10.345C9.7727 10.2545 3.07467 10.4292 2.21862 10.6491C1.82383 10.7507 1.52714 10.9222 1.21858 11.231C0.678215 11.7708 0.35621 12.5449 0.226458 13.6166C-0.0686478 16.0618 -0.0749771 19.0175 0.209052 21.5516C0.331684 22.6416 0.584858 23.3498 1.05798 23.9333C1.35387 24.2977 1.86339 24.6073 2.3191 24.6994C2.63873 24.7645 4.23927 24.8542 6.57084 24.9383ZM15.2578 9.61674C14.9239 9.57228 14.7285 9.44287 14.5948 9.17692C14.4271 8.84348 14.4271 8.84507 14.4271 5.52263V2.42248H15.1011H15.7744L15.7887 5.28049C15.8037 8.38461 15.7997 8.31237 15.9849 8.35921C16.155 8.40129 16.3433 8.30999 16.5774 8.07023L16.8021 7.8408L16.8108 5.13124L16.8188 2.42248L17.492 2.41295L18.1653 2.40501V5.95292V9.50162L18.0736 9.52067C17.9636 9.5437 16.943 9.54211 16.8607 9.51829C16.8108 9.5048 16.8029 9.45875 16.8029 9.18089V8.85857L16.6115 9.04593C16.1716 9.47542 15.6969 9.67548 15.2578 9.61674ZM11.8653 8.26156C12.0963 8.08532 12.0979 8.07023 12.1097 6.07518C12.12 4.52471 12.1145 4.26114 12.0678 4.04996C12.0045 3.76416 11.8937 3.6292 11.677 3.56965C11.3969 3.49503 11.1405 3.6554 11.0503 3.96263C10.9823 4.19921 10.9831 7.71616 11.0519 7.95274C11.1041 8.13057 11.2711 8.32507 11.3945 8.35207C11.5551 8.3862 11.7521 8.3481 11.866 8.26156H11.8653ZM11.3375 9.61515C10.7347 9.54211 10.1809 9.18645 9.91423 8.70058C9.64286 8.20599 9.61754 7.94718 9.63336 5.76874C9.64602 4.08172 9.65077 3.97613 9.71723 3.73399C9.87625 3.15842 10.184 2.76624 10.6611 2.52886C11.3162 2.20416 12.0227 2.24624 12.6406 2.64795C13.0346 2.90278 13.2735 3.27274 13.4017 3.82291C13.4579 4.06584 13.4634 4.2524 13.4634 5.9561C13.4634 8.02816 13.4539 8.14804 13.2419 8.59658C13.0386 9.02926 12.5781 9.41032 12.0979 9.54449C11.8858 9.60245 11.5179 9.63738 11.3375 9.61515Z" fill="white"/>
</svg>
