<svg width="15" height="8" viewBox="0 0 15 8" fill="none" xmlns="http://www.w3.org/2000/svg">
<path d="M0.46875 0.9375H14.5312C14.79 0.9375 15 0.7275 15 0.46875C15 0.21 14.79 0 14.5312 0H0.46875C0.21 0 0 0.21 0 0.46875C0 0.7275 0.21 0.9375 0.46875 0.9375Z" fill="white"/>
<path d="M14.5312 3.28125H0.46875C0.21 3.28125 0 3.49125 0 3.75C0 4.00875 0.21 4.21875 0.46875 4.21875H14.5312C14.79 4.21875 15 4.00875 15 3.75C15 3.49125 14.79 3.28125 14.5312 3.28125Z" fill="white"/>
<path d="M14.5312 6.5625H5.15625C4.8975 6.5625 4.6875 6.7725 4.6875 7.03125C4.6875 7.29 4.8975 7.5 5.15625 7.5H14.5312C14.79 7.5 15 7.29 15 7.03125C15 6.7725 14.79 6.5625 14.5312 6.5625Z" fill="white"/>
</svg>
