<svg width="30" height="30" viewBox="0 0 30 30" fill="none" xmlns="http://www.w3.org/2000/svg">
<g opacity="0.5">
<mask id="path-2-inside-1" fill="white">
<path d="M15.0005 4.79932C11.4187 4.79932 8.50464 7.71336 8.50464 11.2952V18.7045C8.50464 22.2864 11.4187 25.2004 15.0005 25.2004C18.5824 25.2004 21.4964 22.2864 21.4964 18.7045V11.2952C21.4964 7.71336 18.5824 4.79932 15.0005 4.79932ZM15.0005 24.6145C11.7418 24.6145 9.09058 21.9634 9.09058 18.7046V11.6284L13.5592 12.2049L13.6341 11.6237L9.09649 11.0384C9.22728 7.99555 11.6695 5.54158 14.7075 5.39258V7.024H15.2935V5.39258C18.3316 5.54164 20.7736 7.99549 20.9046 11.0382L16.398 11.6163L16.4725 12.1975L20.9105 11.6282V18.7047C20.9105 21.9634 18.2593 24.6145 15.0005 24.6145Z"/>
</mask>
<path d="M9.09058 11.6284L9.21852 10.6366L8.09058 10.4911V11.6284H9.09058ZM13.5592 12.2049L13.4312 13.1966L14.4231 13.3246L14.551 12.3328L13.5592 12.2049ZM13.6341 11.6237L14.6259 11.7516L14.7538 10.7599L13.7621 10.6319L13.6341 11.6237ZM9.09649 11.0384L8.09742 10.9954L8.05799 11.9127L8.96856 12.0302L9.09649 11.0384ZM14.7075 5.39258H15.7075V4.34233L14.6586 4.39378L14.7075 5.39258ZM14.7075 7.024H13.7075V8.024H14.7075V7.024ZM15.2935 7.024V8.024H16.2935V7.024H15.2935ZM15.2935 5.39258L15.3425 4.39378L14.2935 4.34231V5.39258H15.2935ZM20.9046 11.0382L21.0318 12.0301L21.9432 11.9132L21.9037 10.9952L20.9046 11.0382ZM16.398 11.6163L16.2708 10.6244L15.2791 10.7516L15.4061 11.7434L16.398 11.6163ZM16.4725 12.1975L15.4806 12.3246L15.6077 13.3166L16.5997 13.1894L16.4725 12.1975ZM20.9105 11.6282H21.9105V10.4918L20.7832 10.6364L20.9105 11.6282ZM15.0005 3.79932C10.8664 3.79932 7.50464 7.16107 7.50464 11.2952H9.50464C9.50464 8.26564 11.971 5.79932 15.0005 5.79932V3.79932ZM7.50464 11.2952V18.7045H9.50464V11.2952H7.50464ZM7.50464 18.7045C7.50464 22.8387 10.8664 26.2004 15.0005 26.2004V24.2004C11.971 24.2004 9.50464 21.7341 9.50464 18.7045H7.50464ZM15.0005 26.2004C19.1346 26.2004 22.4964 22.8387 22.4964 18.7045H20.4964C20.4964 21.7341 18.0301 24.2004 15.0005 24.2004V26.2004ZM22.4964 18.7045V11.2952H20.4964V18.7045H22.4964ZM22.4964 11.2952C22.4964 7.16107 19.1346 3.79932 15.0005 3.79932V5.79932C18.0301 5.79932 20.4964 8.26564 20.4964 11.2952H22.4964ZM15.0005 23.6145C12.2941 23.6145 10.0906 21.4111 10.0906 18.7046H8.09058C8.09058 22.5156 11.1895 25.6145 15.0005 25.6145V23.6145ZM10.0906 18.7046V11.6284H8.09058V18.7046H10.0906ZM8.96264 12.6202L13.4312 13.1966L13.6871 11.2131L9.21852 10.6366L8.96264 12.6202ZM14.551 12.3328L14.6259 11.7516L12.6423 11.4958L12.5674 12.077L14.551 12.3328ZM13.7621 10.6319L9.22443 10.0466L8.96856 12.0302L13.5062 12.6155L13.7621 10.6319ZM10.0956 11.0813C10.2042 8.55498 12.2343 6.51508 14.7565 6.39138L14.6586 4.39378C11.1047 4.56808 8.2504 7.43611 8.09742 10.9954L10.0956 11.0813ZM13.7075 5.39258V7.024H15.7075V5.39258H13.7075ZM14.7075 8.024H15.2935V6.024H14.7075V8.024ZM16.2935 7.024V5.39258H14.2935V7.024H16.2935ZM15.2445 6.39138C17.7668 6.51513 19.7968 8.55494 19.9055 11.0812L21.9037 10.9952C21.7505 7.43604 18.8964 4.56815 15.3425 4.39378L15.2445 6.39138ZM20.7774 10.0463L16.2708 10.6244L16.5253 12.6082L21.0318 12.0301L20.7774 10.0463ZM15.4061 11.7434L15.4806 12.3246L17.4644 12.0704L17.3899 11.4892L15.4061 11.7434ZM16.5997 13.1894L21.0377 12.6201L20.7832 10.6364L16.3453 11.2056L16.5997 13.1894ZM19.9105 11.6282V18.7047H21.9105V11.6282H19.9105ZM19.9105 18.7047C19.9105 21.4111 17.707 23.6145 15.0005 23.6145V25.6145C18.8115 25.6145 21.9105 22.5156 21.9105 18.7047H19.9105Z" fill="#262626" mask="url(#path-2-inside-1)"/>
<path d="M14.986 7.79346C14.5624 7.79346 14.2177 8.13816 14.2177 8.56186V10.7346C14.2177 11.0546 14.4144 11.3292 14.6931 11.4447V13.0109H15.279V11.4447C15.5577 11.3292 15.7544 11.0546 15.7544 10.7346V8.56186C15.7544 8.13816 15.4097 7.79346 14.986 7.79346ZM14.8036 8.56186C14.8036 8.46125 14.8854 8.37939 14.986 8.37939C15.0867 8.37939 15.1685 8.46125 15.1685 8.56186V10.7346C15.1685 10.8352 15.0867 10.9171 14.986 10.9171C14.8854 10.9171 14.8036 10.8352 14.8036 10.7346V8.56186Z" fill="#262626"/>
</g>
</svg>
