<svg width="21" height="21" viewBox="0 0 21 21" fill="none" xmlns="http://www.w3.org/2000/svg">
<path d="M10.5005 0.492188C7.71143 0.492188 5.20947 1.59961 3.40479 3.4043C1.6001 5.20898 0.492676 7.71094 0.492676 10.5C0.492676 13.2891 1.6001 15.791 3.40479 17.5957C5.20947 19.4004 7.71143 20.5078 10.5005 20.5078C13.2896 20.5078 15.7915 19.4004 17.5962 17.5957C19.4009 15.791 20.5083 13.2891 20.5083 10.5C20.5083 7.71094 19.4009 5.20898 17.5962 3.4043C15.7915 1.59961 13.2896 0.492188 10.5005 0.492188ZM3.07666 3.07617C4.96338 1.18945 7.58838 0 10.5005 0C13.4126 0 16.0376 1.18945 17.9243 3.07617C19.811 4.96289 21.0005 7.58789 21.0005 10.5C21.0005 13.4121 19.811 16.0371 17.9243 17.9238C16.0376 19.8105 13.4126 21 10.5005 21C7.58838 21 4.96338 19.8105 3.07666 17.9238C1.18994 16.0371 0.000488281 13.4121 0.000488281 10.5C0.000488281 7.58789 1.18994 4.96289 3.07666 3.07617Z" fill="black"/>
<path d="M9.49011 15.0938C9.40808 15.1758 9.24402 15.1758 9.16199 15.0938C9.07996 15.0117 9.07996 14.8477 9.16199 14.7656L13.4276 10.5L9.16199 6.23438C9.07996 6.15234 9.07996 5.98828 9.16199 5.90625C9.24402 5.82422 9.40808 5.82422 9.49011 5.90625L13.9198 10.3359C14.0428 10.418 14.0428 10.582 13.9198 10.6641L9.49011 15.0938Z" fill="black"/>
</svg>
