<svg width="71" height="71" viewBox="0 0 71 71" fill="none" xmlns="http://www.w3.org/2000/svg">
<circle cx="35.5005" cy="35.5" r="35.5" fill="#F26725"/>
<path fill-rule="evenodd" clip-rule="evenodd" d="M45.3755 50.9836V52.625H48.5006C49.3635 52.625 50.063 51.9298 50.063 51.0728V24.5H43.8097C42.0856 24.5 40.688 23.1148 40.688 21.3658V13.5625H25.0561C24.1969 13.5625 23.5005 14.2738 23.5005 15.1179V51.0696C23.5005 51.9286 24.211 52.625 25.0629 52.625H37.563V50.9836C36.5964 49.9972 36.0005 48.6463 36.0005 47.1562C36.0005 44.1359 38.4489 41.6875 41.4692 41.6875C44.4895 41.6875 46.938 44.1359 46.938 47.1562C46.938 48.6463 46.342 49.9972 45.3755 50.9836ZM39.1255 52.0987V58.25L41.4692 55.9063L43.813 58.25V52.0987C43.1026 52.4362 42.308 52.625 41.4692 52.625C40.6305 52.625 39.8358 52.4362 39.1255 52.0987ZM45.3755 54.1875H48.5045C50.2282 54.1875 51.6255 52.784 51.6255 51.0769V22.9375L42.2505 12H25.0673C23.339 12 21.938 13.4037 21.938 15.1365V51.051C21.938 52.7833 23.3301 54.1875 25.059 54.1875H37.563V62L41.4692 58.0938L45.3755 62V54.1875ZM42.2505 14.3438V21.3613C42.2505 22.2318 42.9546 22.9375 43.8079 22.9375H49.5942L42.2505 14.3438ZM26.6255 22.9375V24.5H37.563V22.9375H26.6255ZM26.6255 18.25V19.8125H37.563V18.25H26.6255ZM26.6255 27.625V29.1875H46.938V27.625H26.6255ZM26.6255 32.3125V33.875H46.938V32.3125H26.6255ZM26.6255 37V38.5625H46.938V37H26.6255ZM41.4692 51.0625C43.6266 51.0625 45.3755 49.3136 45.3755 47.1562C45.3755 44.9989 43.6266 43.25 41.4692 43.25C39.3119 43.25 37.563 44.9989 37.563 47.1562C37.563 49.3136 39.3119 51.0625 41.4692 51.0625Z" fill="white"/>
</svg>
