<svg width="72" height="72" viewBox="0 0 72 72" fill="none" xmlns="http://www.w3.org/2000/svg">
<circle cx="35.5005" cy="35.5" r="35.5" fill="#F26725"/>
<g clip-path="url(#clip0)">
<path d="M57.4065 13.2197C57.1132 12.9264 56.6392 12.9264 56.3459 13.2197L53.5656 16H36.1028L14.1495 38.134C13.65 38.6335 13.3747 39.2988 13.3747 40.0053C13.3747 40.7119 13.65 41.3771 14.1495 41.8767L29.4995 57.2267C30.0148 57.7419 30.6906 57.9999 31.3678 57.9999C32.0481 57.9999 32.7284 57.7397 33.2497 57.2192L54.6261 35.2652V17.0606L57.4065 14.2802C57.6997 13.987 57.6997 13.513 57.4065 13.2197ZM53.1261 34.6562L32.1816 56.1661C31.7346 56.6131 31.0071 56.6131 30.5601 56.1661L15.2101 40.8161C14.763 40.3691 14.763 39.6416 15.2123 39.1923L36.7283 17.5001H52.0655L48.4407 21.125C47.8474 20.732 47.1386 20.5002 46.3758 20.5002C44.308 20.5002 42.6257 22.1825 42.6257 24.2503C42.6257 26.3181 44.308 28.0004 46.3758 28.0004C48.4437 28.0004 50.126 26.3181 50.126 24.2503C50.126 23.4875 49.8942 22.7788 49.5012 22.1855L53.1261 18.5606V34.6562ZM48.6259 24.2503C48.6259 25.4909 47.6164 26.5004 46.3758 26.5004C45.1353 26.5004 44.1258 25.4909 44.1258 24.2503C44.1258 23.0098 45.1353 22.0002 46.3758 22.0002C46.7224 22.0002 47.0464 22.0857 47.3396 22.226L45.8456 23.7201C45.5523 24.0133 45.5523 24.4873 45.8456 24.7806C45.9918 24.9268 46.1838 25.0003 46.3758 25.0003C46.5678 25.0003 46.7599 24.9268 46.9061 24.7806L48.4002 23.2865C48.5412 23.5798 48.6259 23.9038 48.6259 24.2503Z" fill="white"/>
</g>
<defs>
<clipPath id="clip0">
<rect width="45" height="45" fill="white" transform="translate(13.0005 13)"/>
</clipPath>
</defs>
</svg>
