<svg width="71" height="71" viewBox="0 0 71 71" fill="none" xmlns="http://www.w3.org/2000/svg">
<circle cx="35.5005" cy="35.5" r="35.5" fill="#F26725"/>
<path d="M45.5462 22.8596L22.698 45.7078L25.2907 48.3005L48.1389 25.4523L45.5462 22.8596Z" fill="white"/>
<path d="M55.8207 12.706L53.7135 14.8123L56.3058 17.4057L58.413 15.2994L55.8207 12.706Z" fill="white"/>
<path d="M15.1799 58.2015L17.2871 56.0952L14.6948 53.5018L12.5876 55.6081L15.1799 58.2015Z" fill="white"/>
<path d="M40.1791 15.5039L35.6393 20.0386L50.8628 35.2793L55.4026 30.7446L40.1791 15.5039Z" fill="white"/>
<path d="M48.3169 12.6538L44.7499 16.2173L54.9543 26.4318L58.5213 22.8684L48.3169 12.6538Z" fill="white"/>
<path d="M30.8174 55.3215L35.3572 50.7869L20.1337 35.5461L15.5939 40.0808L30.8174 55.3215Z" fill="white"/>
<path d="M22.6812 58.3723L26.2481 54.8088L16.0437 44.5943L12.4767 48.1578L22.6812 58.3723Z" fill="white"/>
</svg>
