<svg width="71" height="71" viewBox="0 0 71 71" fill="none" xmlns="http://www.w3.org/2000/svg">
<circle cx="35.5005" cy="35.5" r="35.5" fill="#F26725"/>
<path fill-rule="evenodd" clip-rule="evenodd" d="M57.3918 55H15.0005C16.266 44.4932 25.273 36.3478 36.1961 36.3478C47.1192 36.3478 56.1262 44.4932 57.3918 55ZM17.544 53.3043C18.6577 44.7078 26.5838 38.0435 36.1961 38.0435C45.8085 38.0435 53.7346 44.7078 54.8483 53.3043H17.544ZM36.1961 34.6522C41.3468 34.6522 45.5222 30.4767 45.5222 25.3261C45.5222 20.1754 41.3468 16 36.1961 16C31.0455 16 26.8701 20.1754 26.8701 25.3261C26.8701 30.4767 31.0455 34.6522 36.1961 34.6522ZM36.1961 32.9565C31.982 32.9565 28.5657 29.5403 28.5657 25.3261C28.5657 21.1119 31.982 17.6957 36.1961 17.6957C40.4103 17.6957 43.8266 21.1119 43.8266 25.3261C43.8266 29.5403 40.4103 32.9565 36.1961 32.9565Z" fill="white"/>
</svg>
